<svg xmlns="http://www.w3.org/2000/svg" fill="none" height="40" overflow="visible" preserveAspectRatio="none" viewBox="0 0 40 40" width="40">
<g id="Group 5">
<g id="Object">
<mask height="40" id="mask0_0_68648" maskUnits="userSpaceOnUse" style="mask-type:luminance" width="40" x="0" y="0">
<path clip-rule="evenodd" d="M39.5349 16.3636H20.4651V24.0909H31.4419C30.4186 29 26.1395 31.8182 20.4651 31.8182C13.7674 31.8182 8.37209 26.5455 8.37209 20C8.37209 13.4545 13.7674 8.18182 20.4651 8.18182C23.3488 8.18182 25.9535 9.18182 28 10.8182L33.9535 5C30.3256 1.90909 25.6744 0 20.4651 0C9.11628 0 0 8.90909 0 20C0 31.0909 9.11628 40 20.4651 40C30.6977 40 40 32.7273 40 20C40 18.8182 39.814 17.5455 39.5349 16.3636Z" fill="white" fill-rule="evenodd" id="a"/>
</mask>
<g mask="url(#mask0_0_68648)">
<path clip-rule="evenodd" d="M-1.86328 31.8186V8.18227L13.9507 20.0005L-1.86328 31.8186Z" fill="#FBBC05" fill-rule="evenodd" id="Path"/>
</g>
</g>
<g id="Object_2">
<mask height="40" id="mask1_0_68648" maskUnits="userSpaceOnUse" style="mask-type:luminance" width="40" x="0" y="0">
<path clip-rule="evenodd" d="M39.5349 16.3636H20.4651V24.0909H31.4419C30.4186 29 26.1395 31.8182 20.4651 31.8182C13.7674 31.8182 8.37209 26.5455 8.37209 20C8.37209 13.4545 13.7674 8.18182 20.4651 8.18182C23.3488 8.18182 25.9535 9.18182 28 10.8182L33.9535 5C30.3256 1.90909 25.6744 0 20.4651 0C9.11628 0 0 8.90909 0 20C0 31.0909 9.11628 40 20.4651 40C30.6977 40 40 32.7273 40 20C40 18.8182 39.814 17.5455 39.5349 16.3636Z" fill="white" fill-rule="evenodd" id="a_2"/>
</mask>
<g mask="url(#mask1_0_68648)">
<path clip-rule="evenodd" d="M-1.86328 31.8186L26.0437 10.9096L33.3925 11.8186L42.7879 -1.81772V41.8186H-1.86328V31.8186Z" fill="#34A853" fill-rule="evenodd" id="Path_2"/>
</g>
</g>
<g id="Object_3">
<mask height="40" id="mask2_0_68648" maskUnits="userSpaceOnUse" style="mask-type:luminance" width="40" x="0" y="0">
<path clip-rule="evenodd" d="M39.5349 16.3636H20.4651V24.0909H31.4419C30.4186 29 26.1395 31.8182 20.4651 31.8182C13.7674 31.8182 8.37209 26.5455 8.37209 20C8.37209 13.4545 13.7674 8.18182 20.4651 8.18182C23.3488 8.18182 25.9535 9.18182 28 10.8182L33.9535 5C30.3256 1.90909 25.6744 0 20.4651 0C9.11628 0 0 8.90909 0 20C0 31.0909 9.11628 40 20.4651 40C30.6977 40 40 32.7273 40 20C40 18.8182 39.814 17.5455 39.5349 16.3636Z" fill="white" fill-rule="evenodd" id="a_3"/>
</mask>
<g mask="url(#mask2_0_68648)">
<path clip-rule="evenodd" d="M-1.86328 8.18228L13.9507 20.0005L20.4623 14.455L42.7879 10.9096V-1.81772H-1.86328V8.18228Z" fill="#EA4335" fill-rule="evenodd" id="Path_3"/>
</g>
</g>
<mask height="40" id="mask3_0_68648" maskUnits="userSpaceOnUse" style="mask-type:luminance" width="40" x="0" y="0">
<path clip-rule="evenodd" d="M39.5349 16.3636H20.4651V24.0909H31.4419C30.4186 29 26.1395 31.8182 20.4651 31.8182C13.7674 31.8182 8.37209 26.5455 8.37209 20C8.37209 13.4545 13.7674 8.18182 20.4651 8.18182C23.3488 8.18182 25.9535 9.18182 28 10.8182L33.9535 5C30.3256 1.90909 25.6744 0 20.4651 0C9.11628 0 0 8.90909 0 20C0 31.0909 9.11628 40 20.4651 40C30.6977 40 40 32.7273 40 20C40 18.8182 39.814 17.5455 39.5349 16.3636Z" fill="white" fill-rule="evenodd" id="a_4"/>
</mask>
<g mask="url(#mask3_0_68648)">
<path clip-rule="evenodd" d="M42.7886 41.8186L13.9514 20.0005L10.2305 17.2732L42.7886 8.18227V41.8186Z" fill="#4285F4" fill-rule="evenodd" id="Path_4"/>
</g>
</g>
</svg>