<svg xmlns="http://www.w3.org/2000/svg" fill="none" height="23.5087" overflow="visible" preserveAspectRatio="none" viewBox="0 0 23.5944 23.5087" width="23.5944">
<path d="M0.00689129 0.0706745C-0.019554 0.0306178 0.036119 -0.0218715 0.0723349 0.00962927C1.38506 1.15144 7.35921 6.12562 11.8103 6.12562C16.2288 6.12562 22.1481 1.22405 23.5187 0.0353334C23.5553 0.00355006 23.6149 0.0567353 23.5874 0.0967483C22.6362 1.48472 18.9641 7.13092 18.9641 11.5835C18.9641 16.0337 22.6322 21.9706 23.5859 23.4389C23.6124 23.4798 23.5508 23.5313 23.5152 23.498C22.129 22.2053 16.151 16.8756 11.8103 16.8756C7.47969 16.8756 1.5194 22.1805 0.115195 23.4889C0.0794449 23.5223 0.0158908 23.4717 0.0427196 23.4309C1.00877 21.9603 4.65645 16.1202 4.65645 11.778C4.65645 7.38008 0.914618 1.44561 0.00689129 0.0706745Z" fill="url(#paint0_linear_0_69353)" fill-opacity="0.5" id="Rectangle 91"/>
<defs>
<linearGradient gradientUnits="userSpaceOnUse" id="paint0_linear_0_69353" x1="-0.189708" x2="28.747" y1="-0.222032" y2="9.04588">
<stop stop-color="#FFD600"/>
<stop offset="0.245738" stop-color="#FF7A00"/>
<stop offset="0.494792" stop-color="#FF0069"/>
<stop offset="0.746239" stop-color="#D300C5"/>
<stop offset="1" stop-color="#7638FA"/>
</linearGradient>
</defs>
</svg>