<svg xmlns="http://www.w3.org/2000/svg" fill="none" height="18" overflow="visible" preserveAspectRatio="none" viewBox="0 0 15.4286 18" width="15.4286">
<path d="M13.1406 0H2.28815C1.02188 0 0 1.01225 0 2.25013V15.7499C0 16.9951 1.02186 18 2.28815 18H10.8524C11.051 18 11.2487 17.9254 11.3863 17.7826L15.1992 14.0331C15.3443 13.8895 15.4286 13.7025 15.4286 13.4999V2.24944C15.4286 1.01242 14.3992 0.000146998 13.1404 0.000146998L13.1406 0ZM7.7101 4.12458C8.55677 4.12458 9.23578 4.79968 9.23578 5.62491C9.23578 6.45751 8.55677 7.12524 7.7101 7.12524C6.87093 7.12524 6.18442 6.45751 6.18442 5.62491C6.18525 4.79968 6.87178 4.12458 7.7101 4.12458ZM9.23662 14.6253H3.8104C3.38913 14.6253 3.04797 14.2898 3.04797 13.8756C3.04797 13.4613 3.38916 13.1258 3.8104 13.1258H9.23662C9.65788 13.1258 9.99904 13.4613 9.99904 13.8756C9.99904 14.2898 9.65786 14.6253 9.23662 14.6253ZM11.6123 11.2507H3.8104C3.38913 11.2507 3.04797 10.9151 3.04797 10.5009C3.04797 10.0866 3.38916 9.75114 3.8104 9.75114H11.6123C12.0336 9.75114 12.3747 10.0867 12.3747 10.5009C12.3747 10.9143 12.0336 11.2507 11.6123 11.2507Z" fill="#1DB954" id="Vector"/>
</svg>